<?xml version="1.0" encoding="UTF-8"?>
<svg xmlns="http://www.w3.org/2000/svg" width="612" height="612" viewBox="0 0 612 612">
  <path d="M 475 382 L 461 387 L 448 394 L 434 404 L 429 410 L 424 423 L 424 441 L 428 455 L 433 463 L 435 463 L 438 449 L 440 447 L 453 448 L 447 429 L 448 414 L 457 398 L 468 388 L 475 384 Z M 160 372 L 160 374 L 175 377 L 191 387 L 196 394 L 197 402 L 194 411 L 189 417 L 177 424 L 160 425 L 143 420 L 143 422 L 153 436 L 153 440 L 148 447 L 148 450 L 162 453 L 173 453 L 190 449 L 204 441 L 212 432 L 216 424 L 219 410 L 216 395 L 213 389 L 204 380 L 197 376 L 181 372 Z M 470 283 L 466 296 L 464 311 L 481 319 L 490 328 L 494 336 L 494 349 L 492 355 L 485 366 L 477 373 L 477 375 L 479 375 L 490 368 L 498 360 L 504 351 L 510 335 L 511 320 L 506 305 L 499 297 L 477 284 Z M 156 282 L 140 289 L 121 303 L 111 316 L 106 331 L 106 346 L 109 356 L 114 364 L 125 373 L 142 379 L 149 379 L 149 377 L 140 374 L 128 363 L 123 352 L 123 342 L 128 333 L 137 324 L 151 315 L 166 309 L 164 300 Z M 323 217 L 320 223 L 320 241 L 318 254 L 327 274 L 341 270 L 364 270 L 375 266 L 376 269 L 367 276 L 363 277 L 338 277 L 329 280 L 329 288 L 338 286 L 360 287 L 367 286 L 372 283 L 374 283 L 375 286 L 370 295 L 359 302 L 350 302 L 338 298 L 330 298 L 330 318 L 324 360 L 318 375 L 318 379 L 328 402 L 340 417 L 350 424 L 360 428 L 375 427 L 394 419 L 402 413 L 432 382 L 446 363 L 455 343 L 458 330 L 460 305 L 464 284 L 475 253 L 475 249 L 472 246 L 466 244 L 427 245 L 396 242 L 370 234 L 335 218 Z M 364 390 L 367 389 L 368 392 L 365 393 Z M 328 378 L 331 372 L 339 364 L 348 358 L 360 353 L 376 353 L 386 358 L 399 371 L 407 387 L 407 396 L 405 398 L 400 398 L 380 386 L 366 382 L 347 382 L 340 384 L 330 384 L 328 382 Z M 365 335 L 370 334 L 376 337 L 387 337 L 390 339 L 390 341 L 382 344 L 376 344 L 366 338 Z M 400 290 L 403 289 L 407 294 L 435 306 L 441 312 L 444 321 L 441 322 L 432 317 L 420 316 L 409 312 L 402 304 Z M 406 274 L 409 273 L 417 281 L 441 292 L 448 299 L 450 305 L 447 306 L 438 297 L 424 292 L 413 286 L 408 281 Z M 282 183 L 273 185 L 247 205 L 215 224 L 188 233 L 152 240 L 145 243 L 142 246 L 142 252 L 158 277 L 170 304 L 177 326 L 189 346 L 205 362 L 244 389 L 262 397 L 274 399 L 295 396 L 309 383 L 313 377 L 320 359 L 326 316 L 326 290 L 322 272 L 314 254 L 309 247 L 297 223 L 289 201 L 286 187 Z M 296 370 L 296 372 L 285 380 L 266 380 L 267 377 L 277 377 L 284 375 L 293 369 Z M 201 331 L 211 332 L 210 335 L 204 337 L 205 341 L 208 344 L 207 347 L 205 347 L 197 339 L 197 334 Z M 269 311 L 266 317 L 259 322 L 251 323 L 246 321 L 247 318 L 256 316 L 265 310 Z M 306 303 L 306 329 L 300 349 L 295 357 L 287 365 L 279 370 L 259 371 L 249 368 L 231 358 L 216 344 L 217 341 L 239 338 L 266 329 L 286 317 L 303 302 Z M 308 283 L 313 283 L 316 287 L 315 300 L 312 299 L 310 290 L 303 290 L 303 287 Z M 232 293 L 231 296 L 205 296 L 193 300 L 185 306 L 182 305 L 184 296 L 187 291 L 197 282 L 206 279 L 212 279 L 220 282 L 227 287 Z M 180 268 L 193 260 L 206 259 L 216 264 L 220 268 L 220 270 L 217 271 L 206 266 L 193 266 L 183 271 L 181 271 Z M 299 252 L 298 255 L 286 258 L 274 266 L 261 282 L 257 281 L 257 266 L 259 260 L 267 251 L 272 248 L 284 246 L 293 248 Z M 275 226 L 275 230 L 265 233 L 258 239 L 252 250 L 251 258 L 248 259 L 247 246 L 249 240 L 253 235 L 261 229 L 270 226 Z" fill="#ffffff" fill-rule="evenodd"/>
</svg>
